<svg viewBox="0 0 24 24" fill="currentColor" xmlns="http://www.w3.org/2000/svg">
<mask id="mask0_182_592" style="mask-type:alpha" maskUnits="userSpaceOnUse" x="0" y="0" width="24" height="24">
<rect width="24" height="24" fill="currentColor"/>
</mask>
<g mask="url(#mask0_182_592)">
<path d="M11.9998 14.3788C11.8922 14.3788 11.7928 14.3612 11.7018 14.326C11.6108 14.2907 11.5217 14.2294 11.4343 14.1423L7.04607 9.75376C6.9524 9.66026 6.9024 9.5455 6.89607 9.4095C6.88957 9.27367 6.93957 9.15259 7.04607 9.04625C7.1524 8.93975 7.27032 8.88651 7.39982 8.88651C7.52932 8.88651 7.64724 8.93975 7.75357 9.04625L11.9998 13.2923L16.2461 9.04625C16.3396 8.95259 16.4543 8.90259 16.5903 8.89625C16.7262 8.88975 16.8472 8.93975 16.9536 9.04625C17.0601 9.15259 17.1133 9.2705 17.1133 9.4C17.1133 9.5295 17.0601 9.64742 16.9536 9.75376L12.5653 14.1423C12.478 14.2294 12.3888 14.2907 12.2978 14.326C12.2068 14.3612 12.1075 14.3788 11.9998 14.3788Z" fill="currentColor" fill-opacity="0.67"/>
</g>
</svg>
